<?xml version="1.0" encoding="UTF-8"?>
<svg width="10" height="10" xmlns="http://www.w3.org/2000/svg"><rect width="998" height="998" x="1" y="1"/><path d="M100,200 C100,100 400,100 400,200"/><circle r="10" cx="100" cy="200"/><circle r="10" cx="400" cy="200"/><circle r="10" cx="100" cy="100"/><circle r="10" cx="400" cy="100"/><path d="M100,500 C25,400 475,400 400,500"/><circle r="10" cx="100" cy="500"/><circle r="10" cx="400" cy="500"/><circle r="10" cx="25" cy="400"/><circle r="10" cx="475" cy="400"/><path d="M100,800 C175,700 325,700 400,800"/><circle r="10" cx="100" cy="800"/><circle r="10" cx="400" cy="800"/><circle r="10" cx="175" cy="700"/><circle r="10" cx="325" cy="700"/><path d="M600,200 C675,100 975,100 900,200"/><circle r="10" cx="600" cy="200"/><circle r="10" cx="900" cy="200"/><circle r="10" cx="675" cy="100"/><circle r="10" cx="975" cy="100"/><path d="M600,500 C600,350 900,650 900,500"/><circle r="10" cx="600" cy="500"/><circle r="10" cx="900" cy="500"/><circle r="10" cx="600" cy="350"/><circle r="10" cx="900" cy="650"/><path d="M600,800 C625,700 725,700 750,800
                                       S875,900 900,800"/><circle r="10" cx="600" cy="800"/><circle r="10" cx="750" cy="800"/><circle r="10" cx="900" cy="800"/><circle r="10" cx="625" cy="700"/><circle r="10" cx="725" cy="700"/><circle r="10" cx="875" cy="900"/><circle r="9" cx="775" cy="900"/></svg>