<?xml version="1.0" encoding="UTF-8"?>
<svg width="600" height="300" xmlns="http://www.w3.org/2000/svg"><rect width="200" height="200" x="50" y="50" style="fill:url(#linearGradient); font-weight:"normal" font-stretch:"normal" font-style:"normal""/><path d="m 130,150 c 0,66.66667 0,53.33333 0,120" id="path6089" style="fill:none; font-weight:"normal" font-stretch:"normal" font-style:"normal""/><path d="m 50,150 220,0" id="path7115" style="fill:none; font-weight:"normal" font-stretch:"normal" font-style:"normal""/><path d="m 104,250 a 4,4 0 1 1 -8,0 4,4 0 1 1 8,0 z" id="path6103" style="fill:#a282fd; font-weight:"normal" font-stretch:"normal" font-style:"normal""/><path d="m 104,80 a 4,4 0 1 1 -8,0 4,4 0 1 1 8,0 z" id="path6101" style="fill:#f5d5bd; font-weight:"normal" font-stretch:"normal" font-style:"normal""/><path d="m 104,50 a 4,4 0 1 1 -8,0 4,4 0 1 1 8,0 z" id="path6099" style="fill:#b2efdc; font-weight:"normal" font-stretch:"normal" font-style:"normal""/><rect width="200" height="200" x="350" y="50" id="rect7325" style="fill:url(#radialGradient); font-weight:"normal" font-stretch:"normal" font-style:"normal""/><path d="m 450,150 120,0" id="path7337" style="fill:none; font-weight:"normal" font-stretch:"normal" font-style:"normal""/><path d="m 104,250 a 4,4 0 1 1 -8,0 4,4 0 1 1 8,0 z" id="path7339" style="fill:#a282fd; font-weight:"normal" font-stretch:"normal" font-style:"normal""/><path d="m 104,50 a 4,4 0 1 1 -8,0 4,4 0 1 1 8,0 z" id="path7343" style="fill:#b2efdc; font-weight:"normal" font-stretch:"normal" font-style:"normal""/><path d="m 490,150 c 0,66.66667 0,53.33333 0,120" id="path4886" style="fill:none; font-weight:"normal" font-stretch:"normal" font-style:"normal""/><path d="m 104,80 a 4,4 0 1 1 -8,0 4,4 0 1 1 8,0 z" id="path7341" style="fill:#f5d5bd; font-weight:"normal" font-stretch:"normal" font-style:"normal""/></svg>