<?xml version="1.0" encoding="UTF-8"?>
<svg width="500" height="250" xmlns="http://www.w3.org/2000/svg"><path d="m 130,50 c 0,33.02 13.45,63.16 35.15,84.85 7.12,7.13 15.16,13.36 23.91,18.53 -49.81,12.6 -103.328,5.7 -149.06,-20.7 l -20,34.64 c 74.228,42.86 165.77,42.86 240,0 a 213.91,213.91 0 0 0 92.03,-106.75 109.68,109.68 0 0 1 -102.03,69.43 c -22.21,0 -42.07,-8.93 -56.57,-23.43 -14.5,-14.5 -23.43,-34.36 -23.43,-56.57 z" style="fill:deeppink; font-weight:"normal" font-stretch:"normal" font-style:"normal""/><path d="m 150,50 a 100,100 0 0 0 100,100 m 0,0 a 220,220 0 0 1 -220,0" style="fill:none; font-weight:"normal" font-stretch:"normal" font-style:"normal""/><path d="m 150,50 a 100,100 0 0 0 100,100 m 0,0 a 220,220 0 0 1 -220,0" style="fill:none; font-weight:"normal" font-stretch:"normal" font-style:"normal""/></svg>