<?xml version="1.0" encoding="UTF-8"?>
<svg width="600" height="400" xmlns="http://www.w3.org/2000/svg"><circle r="160" cx="300" cy="200"/><path d="m  60 40 a 160 160 0 0 1 0 320 z" style="fill:url(#crosshatch); font-weight:"normal" font-stretch:"normal" font-style:"normal""/><path d="m 540 40 a 160 160 0 0 0 0 320 z" style="fill:url(#crosshatch); font-weight:"normal" font-stretch:"normal" font-style:"normal""/><path d="m 300,40 a 160,160 0 0 0 -120,54.4 160,160 0 0 1 0,211.2 160,160 0 0 0 120,54.4 160,160 0 0 0 120,-54.4 160,160 0 0 1 0,-211.2 160,160 0 0 0 -120,-54.4 z" style="dash-array:none; font-weight:"normal" font-stretch:"normal" font-style:"normal""/></svg>